<mxfile host="app.diagrams.net" modified="2021-01-28T15:07:30.099Z" agent="5.0 (Windows)" etag="uq_Wfv_K58bHu0jG8kVQ" version="14.2.7" type="github">
  <diagram id="ledTK3Jc3U8G42aMWWrB" name="Page-1">
    <mxGraphModel dx="1038" dy="547" grid="1" gridSize="10" guides="1" tooltips="1" connect="1" arrows="1" fold="1" page="1" pageScale="1" pageWidth="1169" pageHeight="827" math="0" shadow="0">
      <root>
        <mxCell id="0" />
        <mxCell id="1" parent="0" />
        <mxCell id="XpzHF-PTDB18xO61Rv8e-2" value="Schedule for release of funds and performance contracting" style="swimlane;" vertex="1" parent="1">
          <mxGeometry x="10" y="10" width="1150" height="810" as="geometry" />
        </mxCell>
      </root>
    </mxGraphModel>
  </diagram>
</mxfile>
